{
	"asset":{
		"generator":"Khronos glTF Blender I/O v4.0.44",
		"version":"2.0"
	},
	"scene":0,
	"scenes":[
		{
			"name":"Scene",
			"nodes":[
				0
			]
		}
	],
	"nodes":[
		{
			"mesh":0,
			"name":"CommonTree_1"
		}
	],
	"materials":[
		{
			"alphaCutoff":0.20000000298023224,
			"alphaMode":"MASK",
			"doubleSided":true,
			"name":"Bark_NormalTree",
			"normalTexture":{
				"index":0
			},
			"pbrMetallicRoughness":{
				"baseColorTexture":{
					"index":1
				},
				"metallicFactor":0
			}
		},
		{
			"alphaCutoff":0.20000000298023224,
			"alphaMode":"MASK",
			"doubleSided":true,
			"name":"Leaves_NormalTree",
			"pbrMetallicRoughness":{
				"baseColorTexture":{
					"index":2
				},
				"metallicFactor":0
			}
		}
	],
	"meshes":[
		{
			"name":"tree.023",
			"primitives":[
				{
					"attributes":{
						"COLOR_0":0,
						"POSITION":1,
						"NORMAL":2,
						"TEXCOORD_0":3
					},
					"indices":4,
					"material":0
				},
				{
					"attributes":{
						"COLOR_0":5,
						"POSITION":6,
						"NORMAL":7,
						"TEXCOORD_0":8
					},
					"indices":9,
					"material":1
				}
			]
		}
	],
	"textures":[
		{
			"sampler":0,
			"source":0
		},
		{
			"sampler":0,
			"source":1
		},
		{
			"sampler":0,
			"source":2
		}
	],
	"images":[
		{
			"mimeType":"image/png",
			"name":"Bark_NormalTree_Normal",
			"uri":"Bark_NormalTree_Normal.png"
		},
		{
			"mimeType":"image/png",
			"name":"Bark_NormalTree",
			"uri":"Bark_NormalTree.png"
		},
		{
			"mimeType":"image/png",
			"name":"Leaves_NormalTree_C",
			"uri":"Leaves_NormalTree_C.png"
		}
	],
	"accessors":[
		{
			"bufferView":0,
			"componentType":5126,
			"count":5618,
			"type":"VEC4"
		},
		{
			"bufferView":1,
			"componentType":5126,
			"count":5618,
			"max":[
				1.2684564590454102,
				6.483748912811279,
				1.3548027276992798
			],
			"min":[
				-1.3591265678405762,
				-0.24277201294898987,
				-1.126320481300354
			],
			"type":"VEC3"
		},
		{
			"bufferView":2,
			"componentType":5126,
			"count":5618,
			"type":"VEC3"
		},
		{
			"bufferView":3,
			"componentType":5126,
			"count":5618,
			"type":"VEC2"
		},
		{
			"bufferView":4,
			"componentType":5123,
			"count":13035,
			"type":"SCALAR"
		},
		{
			"bufferView":5,
			"componentType":5126,
			"count":3840,
			"type":"VEC4"
		},
		{
			"bufferView":6,
			"componentType":5126,
			"count":3840,
			"max":[
				2.116964101791382,
				7.022013187408447,
				2.3531949520111084
			],
			"min":[
				-2.1944587230682373,
				2.3466193675994873,
				-2.2245190143585205
			],
			"type":"VEC3"
		},
		{
			"bufferView":7,
			"componentType":5126,
			"count":3840,
			"type":"VEC3"
		},
		{
			"bufferView":8,
			"componentType":5126,
			"count":3840,
			"type":"VEC2"
		},
		{
			"bufferView":9,
			"componentType":5123,
			"count":5760,
			"type":"SCALAR"
		}
	],
	"bufferViews":[
		{
			"buffer":0,
			"byteLength":89888,
			"byteOffset":0,
			"target":34962
		},
		{
			"buffer":0,
			"byteLength":67416,
			"byteOffset":89888,
			"target":34962
		},
		{
			"buffer":0,
			"byteLength":67416,
			"byteOffset":157304,
			"target":34962
		},
		{
			"buffer":0,
			"byteLength":44944,
			"byteOffset":224720,
			"target":34962
		},
		{
			"buffer":0,
			"byteLength":26070,
			"byteOffset":269664,
			"target":34963
		},
		{
			"buffer":0,
			"byteLength":61440,
			"byteOffset":295736,
			"target":34962
		},
		{
			"buffer":0,
			"byteLength":46080,
			"byteOffset":357176,
			"target":34962
		},
		{
			"buffer":0,
			"byteLength":46080,
			"byteOffset":403256,
			"target":34962
		},
		{
			"buffer":0,
			"byteLength":30720,
			"byteOffset":449336,
			"target":34962
		},
		{
			"buffer":0,
			"byteLength":11520,
			"byteOffset":480056,
			"target":34963
		}
	],
	"samplers":[
		{
			"magFilter":9729,
			"minFilter":9987
		}
	],
	"buffers":[
		{
			"byteLength":491576,
			"uri":"CommonTree_1.bin"
		}
	]
}
