{
	"asset":{
		"generator":"Khronos glTF Blender I/O v4.0.44",
		"version":"2.0"
	},
	"scene":0,
	"scenes":[
		{
			"name":"Scene",
			"nodes":[
				0
			]
		}
	],
	"nodes":[
		{
			"mesh":0,
			"name":"Pine_2"
		}
	],
	"materials":[
		{
			"alphaCutoff":0.20000000298023224,
			"alphaMode":"MASK",
			"doubleSided":true,
			"name":"Bark_NormalTree",
			"normalTexture":{
				"index":0
			},
			"pbrMetallicRoughness":{
				"baseColorTexture":{
					"index":1
				},
				"metallicFactor":0
			}
		},
		{
			"alphaCutoff":0.20000000298023224,
			"alphaMode":"MASK",
			"doubleSided":true,
			"name":"Leaves_Pine",
			"pbrMetallicRoughness":{
				"baseColorTexture":{
					"index":2
				},
				"metallicFactor":0
			}
		}
	],
	"meshes":[
		{
			"name":"tree.029",
			"primitives":[
				{
					"attributes":{
						"COLOR_0":0,
						"POSITION":1,
						"NORMAL":2,
						"TEXCOORD_0":3
					},
					"indices":4,
					"material":0
				},
				{
					"attributes":{
						"COLOR_0":5,
						"POSITION":6,
						"NORMAL":7,
						"TEXCOORD_0":8
					},
					"indices":9,
					"material":1
				}
			]
		}
	],
	"textures":[
		{
			"sampler":0,
			"source":0
		},
		{
			"sampler":0,
			"source":1
		},
		{
			"sampler":0,
			"source":2
		}
	],
	"images":[
		{
			"mimeType":"image/png",
			"name":"Bark_NormalTree_Normal",
			"uri":"Bark_NormalTree_Normal.png"
		},
		{
			"mimeType":"image/png",
			"name":"Bark_NormalTree",
			"uri":"Bark_NormalTree.png"
		},
		{
			"mimeType":"image/png",
			"name":"Leaf_Pine_C",
			"uri":"Leaf_Pine_C.png"
		}
	],
	"accessors":[
		{
			"bufferView":0,
			"componentType":5126,
			"count":3616,
			"type":"VEC4"
		},
		{
			"bufferView":1,
			"componentType":5126,
			"count":3616,
			"max":[
				1.3288283348083496,
				6.861804008483887,
				1.4154813289642334
			],
			"min":[
				-0.8798791170120239,
				-0.23508860170841217,
				-1.9060800075531006
			],
			"type":"VEC3"
		},
		{
			"bufferView":2,
			"componentType":5126,
			"count":3616,
			"type":"VEC3"
		},
		{
			"bufferView":3,
			"componentType":5126,
			"count":3616,
			"type":"VEC2"
		},
		{
			"bufferView":4,
			"componentType":5123,
			"count":8634,
			"type":"SCALAR"
		},
		{
			"bufferView":5,
			"componentType":5126,
			"count":1310,
			"type":"VEC4"
		},
		{
			"bufferView":6,
			"componentType":5126,
			"count":1310,
			"max":[
				2.8361265659332275,
				7.141149520874023,
				2.527508020401001
			],
			"min":[
				-2.891958236694336,
				1.1175905466079712,
				-2.6936988830566406
			],
			"type":"VEC3"
		},
		{
			"bufferView":7,
			"componentType":5126,
			"count":1310,
			"type":"VEC3"
		},
		{
			"bufferView":8,
			"componentType":5126,
			"count":1310,
			"type":"VEC2"
		},
		{
			"bufferView":9,
			"componentType":5123,
			"count":2310,
			"type":"SCALAR"
		}
	],
	"bufferViews":[
		{
			"buffer":0,
			"byteLength":57856,
			"byteOffset":0,
			"target":34962
		},
		{
			"buffer":0,
			"byteLength":43392,
			"byteOffset":57856,
			"target":34962
		},
		{
			"buffer":0,
			"byteLength":43392,
			"byteOffset":101248,
			"target":34962
		},
		{
			"buffer":0,
			"byteLength":28928,
			"byteOffset":144640,
			"target":34962
		},
		{
			"buffer":0,
			"byteLength":17268,
			"byteOffset":173568,
			"target":34963
		},
		{
			"buffer":0,
			"byteLength":20960,
			"byteOffset":190836,
			"target":34962
		},
		{
			"buffer":0,
			"byteLength":15720,
			"byteOffset":211796,
			"target":34962
		},
		{
			"buffer":0,
			"byteLength":15720,
			"byteOffset":227516,
			"target":34962
		},
		{
			"buffer":0,
			"byteLength":10480,
			"byteOffset":243236,
			"target":34962
		},
		{
			"buffer":0,
			"byteLength":4620,
			"byteOffset":253716,
			"target":34963
		}
	],
	"samplers":[
		{
			"magFilter":9729,
			"minFilter":9987
		}
	],
	"buffers":[
		{
			"byteLength":258336,
			"uri":"Pine_2.bin"
		}
	]
}
