{
	"asset":{
		"generator":"Khronos glTF Blender I/O v4.0.44",
		"version":"2.0"
	},
	"scene":0,
	"scenes":[
		{
			"name":"Scene",
			"nodes":[
				0
			]
		}
	],
	"nodes":[
		{
			"mesh":0,
			"name":"Rock_Medium_3"
		}
	],
	"materials":[
		{
			"doubleSided":true,
			"name":"Rocks",
			"pbrMetallicRoughness":{
				"baseColorTexture":{
					"index":0
				},
				"metallicFactor":0
			}
		}
	],
	"meshes":[
		{
			"name":"Cube.002_Retopology.001",
			"primitives":[
				{
					"attributes":{
						"POSITION":0,
						"NORMAL":1,
						"TEXCOORD_0":2
					},
					"indices":3,
					"material":0
				}
			]
		}
	],
	"textures":[
		{
			"sampler":0,
			"source":0
		}
	],
	"images":[
		{
			"mimeType":"image/png",
			"name":"Rocks_Diffuse",
			"uri":"Rocks_Diffuse.png"
		}
	],
	"accessors":[
		{
			"bufferView":0,
			"componentType":5126,
			"count":531,
			"max":[
				1.5958054065704346,
				2.000638246536255,
				2.5856480598449707
			],
			"min":[
				-1.8242793083190918,
				-0.31564441323280334,
				-0.8904620409011841
			],
			"type":"VEC3"
		},
		{
			"bufferView":1,
			"componentType":5126,
			"count":531,
			"type":"VEC3"
		},
		{
			"bufferView":2,
			"componentType":5126,
			"count":531,
			"type":"VEC2"
		},
		{
			"bufferView":3,
			"componentType":5123,
			"count":1566,
			"type":"SCALAR"
		}
	],
	"bufferViews":[
		{
			"buffer":0,
			"byteLength":6372,
			"byteOffset":0,
			"target":34962
		},
		{
			"buffer":0,
			"byteLength":6372,
			"byteOffset":6372,
			"target":34962
		},
		{
			"buffer":0,
			"byteLength":4248,
			"byteOffset":12744,
			"target":34962
		},
		{
			"buffer":0,
			"byteLength":3132,
			"byteOffset":16992,
			"target":34963
		}
	],
	"samplers":[
		{
			"magFilter":9729,
			"minFilter":9987
		}
	],
	"buffers":[
		{
			"byteLength":20124,
			"uri":"Rock_Medium_3.bin"
		}
	]
}
