{
	"asset":{
		"generator":"Khronos glTF Blender I/O v4.0.44",
		"version":"2.0"
	},
	"scene":0,
	"scenes":[
		{
			"name":"Scene",
			"nodes":[
				0
			]
		}
	],
	"nodes":[
		{
			"mesh":0,
			"name":"Rock_Medium_2"
		}
	],
	"materials":[
		{
			"doubleSided":true,
			"name":"Rocks",
			"pbrMetallicRoughness":{
				"baseColorTexture":{
					"index":0
				},
				"metallicFactor":0
			}
		}
	],
	"meshes":[
		{
			"name":"Cube.004_Retopology.001",
			"primitives":[
				{
					"attributes":{
						"POSITION":0,
						"NORMAL":1,
						"TEXCOORD_0":2
					},
					"indices":3,
					"material":0
				}
			]
		}
	],
	"textures":[
		{
			"sampler":0,
			"source":0
		}
	],
	"images":[
		{
			"mimeType":"image/png",
			"name":"Rocks_Diffuse",
			"uri":"Rocks_Diffuse.png"
		}
	],
	"accessors":[
		{
			"bufferView":0,
			"componentType":5126,
			"count":249,
			"max":[
				1.3351185321807861,
				1.8481333255767822,
				1.3199462890625
			],
			"min":[
				-1.713641881942749,
				-0.05084158852696419,
				-1.1591253280639648
			],
			"type":"VEC3"
		},
		{
			"bufferView":1,
			"componentType":5126,
			"count":249,
			"type":"VEC3"
		},
		{
			"bufferView":2,
			"componentType":5126,
			"count":249,
			"type":"VEC2"
		},
		{
			"bufferView":3,
			"componentType":5123,
			"count":732,
			"type":"SCALAR"
		}
	],
	"bufferViews":[
		{
			"buffer":0,
			"byteLength":2988,
			"byteOffset":0,
			"target":34962
		},
		{
			"buffer":0,
			"byteLength":2988,
			"byteOffset":2988,
			"target":34962
		},
		{
			"buffer":0,
			"byteLength":1992,
			"byteOffset":5976,
			"target":34962
		},
		{
			"buffer":0,
			"byteLength":1464,
			"byteOffset":7968,
			"target":34963
		}
	],
	"samplers":[
		{
			"magFilter":9729,
			"minFilter":9987
		}
	],
	"buffers":[
		{
			"byteLength":9432,
			"uri":"Rock_Medium_2.bin"
		}
	]
}
